# xmcd CD database file generated by OrangeCD 6.4
#
# Track frame offsets:
#	150
#	18974
#	34835
#	52034
#	69414
#	84632
#	98710
#	113698
#	131734
#	139964
#	147425
#	167492
#
# Disc length: 2451 seconds
#
# Revision: 10
# Processed by: cddbd v1.5.2PL0 Copyright (c) Steve Scherf et al.
# Submitted via: OrangeCD 6.4
#
DISCID=a509910c
DTITLE=John Fogerty - Revival
DYEAR=2007
DGENRE=Folk
TTITLE0=Don't You Wish It Was True
TTITLE1=Gunslinger
TTITLE2=Creedence Song
TTITLE3=Broken Down Cowboy
TTITLE4=River Is Waiting
TTITLE5=Long Dark Night
TTITLE6=Summer Of Love
TTITLE7=Natural Thing
TTITLE8=It Ain't Right
TTITLE9=I Can't Take It No More
TTITLE10=Somebody Help Me
TTITLE11=Longshot
EXTD=l icon.
EXTT0=
EXTT1=
EXTT2=
EXTT3=
EXTT4=
EXTT5=
EXTT6=
EXTT7=
EXTT8=
EXTT9=
EXTT10=
EXTT11=
PLAYORDER=
